<mxfile host="app.diagrams.net" modified="2024-05-16T08:23:41.755Z" agent="Mozilla/5.0 (Windows NT 10.0; Win64; x64) AppleWebKit/537.36 (KHTML, like Gecko) Chrome/124.0.0.0 Safari/537.36" etag="KXdKkhM--26TVxRN92Ps" version="24.4.0" type="github" pages="2">
  <diagram id="bnVQKhchCkehTxedwh1K" name="Page-1">
    <mxGraphModel dx="683" dy="854" grid="0" gridSize="10" guides="1" tooltips="1" connect="1" arrows="1" fold="1" page="0" pageScale="1" pageWidth="850" pageHeight="1100" math="0" shadow="0">
      <root>
        <mxCell id="0" />
        <mxCell id="1" parent="0" />
      </root>
    </mxGraphModel>
  </diagram>
  <diagram id="TWbXKG95R7HJZWxBwcWQ" name="Page-2">
    <mxGraphModel dx="1083" dy="1254" grid="0" gridSize="10" guides="1" tooltips="1" connect="1" arrows="1" fold="1" page="0" pageScale="1" pageWidth="850" pageHeight="1100" math="0" shadow="0">
      <root>
        <mxCell id="0" />
        <mxCell id="1" parent="0" />
        <mxCell id="XKouPrQqXR5QodsCGFAC-2" value="" style="rounded=0;whiteSpace=wrap;html=1;" vertex="1" parent="1">
          <mxGeometry x="-3.5" y="179" width="357" height="118" as="geometry" />
        </mxCell>
        <mxCell id="XKouPrQqXR5QodsCGFAC-3" value="" style="html=1;verticalLabelPosition=bottom;align=center;labelBackgroundColor=#ffffff;verticalAlign=top;strokeWidth=2;strokeColor=#0080F0;shadow=0;dashed=0;shape=mxgraph.ios7.icons.user;" vertex="1" parent="1">
          <mxGeometry x="160" y="-167" width="48" height="47" as="geometry" />
        </mxCell>
        <mxCell id="XKouPrQqXR5QodsCGFAC-4" value="" style="image;sketch=0;aspect=fixed;html=1;points=[];align=center;fontSize=12;image=img/lib/mscae/Azure_Firewall.svg;" vertex="1" parent="1">
          <mxGeometry x="137" y="374" width="76" height="76" as="geometry" />
        </mxCell>
        <mxCell id="XKouPrQqXR5QodsCGFAC-5" value="" style="strokeWidth=2;html=1;shape=mxgraph.flowchart.database;whiteSpace=wrap;" vertex="1" parent="1">
          <mxGeometry x="142.5" y="562" width="65" height="103" as="geometry" />
        </mxCell>
        <mxCell id="XKouPrQqXR5QodsCGFAC-13" value="" style="edgeStyle=none;curved=1;rounded=0;orthogonalLoop=1;jettySize=auto;html=1;fontSize=12;startSize=8;endSize=8;" edge="1" parent="1" target="XKouPrQqXR5QodsCGFAC-11">
          <mxGeometry relative="1" as="geometry">
            <mxPoint x="174.5" y="46" as="sourcePoint" />
            <mxPoint x="174.5" y="-74" as="targetPoint" />
          </mxGeometry>
        </mxCell>
        <mxCell id="XKouPrQqXR5QodsCGFAC-11" value="" style="rounded=0;whiteSpace=wrap;html=1;" vertex="1" parent="1">
          <mxGeometry x="-6" y="-58" width="357" height="118" as="geometry" />
        </mxCell>
      </root>
    </mxGraphModel>
  </diagram>
</mxfile>
